<?xml version="1.0"?>
<svg xmlns="http://www.w3.org/2000/svg" width="2000" height="1000" viewBox="-1000 -500 2000 1000">
    <g>
        <path d="M6.28,44.73C6.28,44.94 6.38,45.56 7.28,45.56L11.98,45.56C12.91,45.56 12.98,44.94 12.98,44.73C12.98,44.53 12.92,43.91 11.98,43.91L7.31,43.91C6.38,43.91 6.28,44.50 6.28,44.73Z"/>
        <path d="M16.28,44.73C16.28,44.94 16.38,45.56 17.28,45.56L21.98,45.56C22.91,45.56 22.98,44.94 22.98,44.73C22.98,44.53 22.92,43.91 21.98,43.91L17.31,43.91C16.38,43.91 16.28,44.50 16.28,44.73Z"/>
        <path d="M26.28,44.73C26.28,44.94 26.38,45.56 27.28,45.56L31.98,45.56C32.91,45.56 32.98,44.94 32.98,44.73C32.98,44.53 32.92,43.91 31.98,43.91L27.31,43.91C26.38,43.91 26.28,44.50 26.28,44.73Z"/>
        <path d="M36.28,44.73C36.28,44.94 36.38,45.56 37.28,45.56L41.98,45.56C42.91,45.56 42.98,44.94 42.98,44.73C42.98,44.53 42.92,43.91 41.98,43.91L37.31,43.91C36.38,43.91 36.28,44.50 36.28,44.73Z"/>
        <path d="M46.28,44.73C46.28,44.94 46.38,45.56 47.28,45.56L51.98,45.56C52.91,45.56 52.98,44.94 52.98,44.73C52.98,44.53 52.92,43.91 51.98,43.91L47.31,43.91C46.38,43.91 46.28,44.50 46.28,44.73Z"/>
        <path d="M2.50,71.56L6.13,71.56L6.13,71.02L4.11,71.02L4.11,48.11L6.13,48.11L6.13,47.56L2.50,47.56L2.50,71.56ZM7.44,65.56C8.28,65.53 9.50,65.48 10.16,65.48C10.78,65.48 12.03,65.53 12.84,65.56L12.84,64.81C11.23,64.81 10.97,64.81 10.97,63.73L10.97,59.33C10.97,56.83 12.67,55.48 14.20,55.48C15.72,55.48 15.98,56.78 15.98,58.14L15.98,63.73C15.98,64.81 15.72,64.81 14.11,64.81L14.11,65.56C14.95,65.53 16.17,65.48 16.83,65.48C17.45,65.48 18.70,65.53 19.52,65.56L19.52,64.81C18.27,64.81 17.66,64.81 17.64,64.09L17.64,59.52C17.64,57.45 17.64,56.70 16.89,55.84C16.56,55.44 15.77,54.95 14.38,54.95C12.36,54.95 11.30,56.39 10.92,57.27L10.89,57.27L10.89,48.91L7.44,49.17L7.44,49.92C9.13,49.92 9.31,50.08 9.31,51.27L9.31,63.73C9.31,64.81 9.05,64.81 7.44,64.81L7.44,65.56ZM20.79,65.25C20.79,65.66 20.79,65.83 21.05,65.83C21.16,65.83 21.20,65.80 21.65,65.34C21.70,65.30 21.70,65.25 22.13,64.80C23.18,65.80 24.26,65.83 24.77,65.83C27.52,65.83 28.63,64.22 28.63,62.48C28.63,61.22 27.91,60.50 27.62,60.20C26.84,59.44 25.90,59.25 24.88,59.06C23.54,58.80 21.93,58.48 21.93,57.09C21.93,56.25 22.55,55.27 24.62,55.27C27.26,55.27 27.38,57.42 27.43,58.17C27.46,58.39 27.68,58.39 27.73,58.39C28.04,58.39 28.04,58.27 28.04,57.81L28.04,55.39C28.04,54.98 28.04,54.81 27.77,54.81C27.65,54.81 27.60,54.81 27.29,55.09C27.21,55.19 26.98,55.41 26.88,55.48C25.96,54.81 24.98,54.81 24.62,54.81C21.70,54.81 20.79,56.42 20.79,57.77C20.79,58.61 21.16,59.28 21.82,59.80C22.59,60.42 23.26,60.58 24.98,60.91C25.51,61 27.48,61.39 27.48,63.11C27.48,64.34 26.63,65.30 24.77,65.30C22.76,65.30 21.88,63.94 21.43,61.89C21.37,61.58 21.34,61.48 21.10,61.48C20.79,61.48 20.79,61.66 20.79,62.08L20.79,65.25ZM30.12,49.92C31.81,49.92 31.99,50.08 31.99,51.27L31.99,65.56L32.59,65.56C32.62,65.53 32.81,65.20 33.46,64.08C33.82,64.63 34.82,65.83 36.60,65.83C39.46,65.83 41.95,63.47 41.95,60.38C41.95,57.33 39.60,54.95 36.87,54.95C34.99,54.95 33.96,56.08 33.57,56.52L33.57,48.91L30.12,49.17L30.12,49.92ZM33.65,62.83L33.65,57.88C33.65,57.42 33.65,57.41 33.92,57.02C34.85,55.67 36.17,55.48 36.74,55.48C37.82,55.48 38.68,56.11 39.26,57.02C39.89,58 39.96,59.38 39.96,60.36C39.96,61.25 39.92,62.69 39.21,63.77C38.71,64.50 37.81,65.30 36.51,65.30C35.42,65.30 34.56,64.72 33.98,63.83C33.65,63.33 33.65,63.27 33.65,62.83ZM44.78,70.67C44.78,70.86 44.91,71.16 45.49,71.16L58.71,71.16C58.97,71.16 59.38,71.11 59.38,70.67C59.38,70.27 58.99,70.19 58.66,70.19L45.50,70.19C45.13,70.19 44.78,70.30 44.78,70.67ZM62.25,60.38C62.25,63.45 64.63,65.83 67.41,65.83C70.63,65.83 71.39,62.95 71.39,62.70C71.39,62.47 71.16,62.47 71.08,62.47C70.88,62.47 70.83,62.56 70.78,62.70C70.08,64.94 68.52,65.22 67.63,65.22C66.36,65.22 64.25,64.19 64.25,60.33C64.25,56.42 66.22,55.41 67.49,55.41C67.71,55.41 69.22,55.44 70.05,56.30C69.06,56.38 68.92,57.09 68.92,57.41C68.92,58.03 69.36,58.50 70.03,58.50C70.66,58.50 71.14,58.09 71.14,57.38C71.14,55.75 69.31,54.81 67.47,54.81C64.47,54.81 62.25,57.41 62.25,60.38ZM72.77,60.42C72.77,63.52 75.27,65.83 78.06,65.83C80.97,65.83 83.39,63.47 83.39,60.42C83.39,57.36 81.00,54.81 78.10,54.81C75.10,54.81 72.77,57.42 72.77,60.42ZM74.75,60.23C74.75,59.30 74.75,58 75.33,56.95C75.99,55.84 77.11,55.34 78.06,55.34C79.13,55.34 80.16,55.86 80.78,56.91C81.41,57.94 81.41,59.33 81.41,60.23C81.41,61.09 81.41,62.39 80.88,63.45C80.35,64.53 79.30,65.22 78.10,65.22C77.06,65.22 76.00,64.72 75.36,63.63C74.75,62.56 74.75,61.09 74.75,60.23ZM84.89,65.56C85.67,65.53 86.96,65.48 87.55,65.48C88.16,65.48 89.33,65.53 90.22,65.56L90.22,64.81C88.61,64.81 88.35,64.81 88.35,63.73L88.35,48.91L84.89,49.17L84.89,49.92C86.56,49.92 86.75,50.08 86.75,51.27L86.75,63.73C86.75,64.81 86.50,64.81 84.89,64.81L84.89,65.56ZM91.42,60.42C91.42,63.52 93.92,65.83 96.71,65.83C99.62,65.83 102.04,63.47 102.04,60.42C102.04,57.36 99.65,54.81 96.74,54.81C93.74,54.81 91.42,57.42 91.42,60.42ZM93.40,60.23C93.40,59.30 93.40,58 93.98,56.95C94.63,55.84 95.76,55.34 96.71,55.34C97.78,55.34 98.81,55.86 99.43,56.91C100.06,57.94 100.06,59.33 100.06,60.23C100.06,61.09 100.06,62.39 99.53,63.45C98.99,64.53 97.95,65.22 96.74,65.22C95.71,65.22 94.65,64.72 94.01,63.63C93.40,62.56 93.40,61.09 93.40,60.23ZM103.42,65.56C104.35,65.53 105.48,65.48 106.15,65.48C107.12,65.48 108.24,65.48 109.20,65.56L109.20,64.81L108.70,64.81C106.92,64.81 106.87,64.55 106.87,63.69L106.87,60C106.87,57.63 107.88,55.48 109.70,55.48C109.87,55.48 109.92,55.48 109.96,55.50C109.90,55.53 109.42,55.81 109.42,56.44C109.42,57.11 109.92,57.47 110.45,57.47C110.88,57.47 111.48,57.19 111.48,56.42C111.48,55.66 110.73,54.95 109.70,54.95C107.95,54.95 107.09,56.56 106.76,57.59L106.76,54.95L103.42,55.22L103.42,55.97C105.10,55.97 105.29,56.13 105.29,57.31L105.29,63.73C105.29,64.81 105.02,64.81 103.42,64.81L103.42,65.56ZM112.63,71.02L112.63,71.56L116.25,71.56L116.25,47.56L112.63,47.56L112.63,48.11L114.64,48.11L114.64,71.02L112.63,71.02Z"/>
        <path d="M6.28,74.39C6.28,74.59 6.38,75.22 7.28,75.22L11.98,75.22C12.91,75.22 12.98,74.59 12.98,74.39C12.98,74.19 12.92,73.56 11.98,73.56L7.31,73.56C6.38,73.56 6.28,74.16 6.28,74.39Z"/>
    </g>
    <path d="M129.25,62.16C129.25,63.38 130.42,64.09 131.83,64.09C134.83,64.09 135.60,61.66 135.60,60.73C135.60,59 134.03,58.64 133.22,58.45C132.66,58.33 131.94,58.17 131.94,57.31C131.94,56.83 132.36,55.47 133.96,55.47C134.50,55.47 135.24,55.67 135.46,56.45C134.82,56.53 134.66,57.08 134.66,57.28C134.66,57.50 134.78,57.83 135.25,57.83C135.60,57.83 136.11,57.59 136.11,56.73C136.11,55.81 135.30,55.03 133.97,55.03C131.64,55.03 130.82,56.95 130.82,58C130.82,59.53 132.11,59.81 132.67,59.94C133.55,60.14 134.46,60.33 134.46,61.42C134.46,62.06 133.92,63.66 131.86,63.66C131.42,63.66 130.25,63.56 129.94,62.53C130.96,62.44 130.96,61.59 130.96,61.56C130.96,61.17 130.69,60.92 130.28,60.92C129.82,60.92 129.25,61.25 129.25,62.16ZM138.05,61C138.05,62.69 138.98,64.09 140.48,64.09C141.19,64.09 142.08,63.67 142.88,62.69C143.10,63.67 143.83,64.09 144.54,64.09C145.27,64.09 145.69,63.59 145.99,62.97C146.35,62.22 146.60,61.06 146.60,61.02C146.60,60.81 146.44,60.81 146.30,60.81C146.05,60.81 146.04,60.83 145.91,61.28C145.63,62.39 145.26,63.66 144.58,63.66C144.05,63.66 144.05,63.11 144.05,62.83C144.05,62.69 144.05,62.38 144.19,61.81L145.55,56.38C145.63,56.09 145.63,56.06 145.63,55.95C145.63,55.53 145.30,55.44 145.10,55.44C144.46,55.44 144.32,56.11 144.30,56.22C143.91,55.36 143.27,55.03 142.63,55.03C140.41,55.03 138.05,58.08 138.05,61ZM139.41,61.88C139.41,60.88 140.04,58.53 140.40,57.69C140.90,56.47 141.82,55.47 142.63,55.47C143.52,55.47 144.02,56.52 144.02,57.36C144.02,57.39 143.99,57.50 143.96,57.61L143.02,61.39C142.85,62.03 141.62,63.66 140.52,63.66C139.58,63.66 139.41,62.47 139.41,61.88ZM147.93,55.64C147.93,55.88 148.12,55.88 148.43,55.88L150.04,55.88L148.60,61.61C148.57,61.69 148.49,62.02 148.49,62.30C148.49,63.30 149.16,64.09 150.20,64.09C152.21,64.09 153.24,61.11 153.24,61.02C153.24,60.81 153.07,60.81 152.93,60.81C152.70,60.81 152.70,60.83 152.54,61.19C152.18,62.16 151.38,63.66 150.24,63.66C149.70,63.66 149.70,63.16 149.70,62.83C149.70,62.69 149.70,62.38 149.84,61.81L151.32,55.88L153.02,55.88C153.35,55.88 153.57,55.88 153.57,55.50C153.57,55.25 153.40,55.25 153.07,55.25L151.48,55.25L152.21,52.30C152.30,52.02 152.30,51.97 152.30,51.88C152.30,51.45 151.96,51.36 151.76,51.36C151.26,51.36 151.05,51.78 150.98,52.08L150.20,55.25L148.49,55.25C148.16,55.25 147.93,55.25 147.93,55.64ZM154.41,58.11C154.41,58.31 154.62,58.31 154.71,58.31C154.98,58.31 154.99,58.28 155.07,58C155.24,57.38 155.77,55.47 156.94,55.47C157.16,55.47 157.38,55.53 157.38,56.06C157.38,56.53 157.18,57.08 156.90,57.86C156.38,59.25 155.85,60.73 155.85,61.78C155.85,63.52 157.02,64.09 158.10,64.09C159.16,64.09 159.84,63.50 160.32,62.89C160.68,63.97 161.54,64.09 161.91,64.09C162.66,64.09 163.07,63.59 163.38,62.97C163.74,62.22 163.98,61.06 163.98,61.02C163.98,60.81 163.82,60.81 163.68,60.81C163.44,60.81 163.41,60.83 163.30,61.28C163.02,62.39 162.63,63.66 161.96,63.66C161.44,63.66 161.44,63.11 161.44,62.83C161.44,62.69 161.44,62.38 161.57,61.81L163.02,56.06C163.05,55.94 163.07,55.83 163.07,55.78C163.07,55.56 162.91,55.25 162.52,55.25C161.91,55.25 161.77,55.83 161.74,56L160.27,61.83C160.18,62.19 160.18,62.23 159.99,62.50C159.62,63.06 159.04,63.66 158.16,63.66C157.26,63.66 157.07,62.78 157.07,62.11C157.07,60.89 157.74,59.09 158.24,57.73C158.40,57.31 158.49,57.03 158.49,56.66C158.49,55.66 157.84,55.03 156.98,55.03C155.12,55.03 154.41,58 154.41,58.11ZM165.13,58.11C165.13,58.31 165.34,58.31 165.43,58.31C165.70,58.31 165.71,58.30 165.82,57.86C166.18,56.45 166.56,55.47 167.18,55.47C167.70,55.47 167.70,56.06 167.70,56.28C167.70,56.59 167.63,56.97 167.56,57.30L166.06,63.30C166.02,63.42 165.99,63.52 165.99,63.58C165.99,63.80 166.16,64.09 166.56,64.09C167.16,64.09 167.29,63.52 167.34,63.36L168.63,58.11C168.66,58.06 169.56,55.47 171.27,55.47C171.38,55.47 171.93,55.47 172.34,55.75C171.63,55.97 171.57,56.61 171.57,56.72C171.57,56.97 171.76,57.36 172.27,57.36C172.63,57.36 173.26,57.08 173.26,56.30C173.26,55.25 171.96,55.03 171.29,55.03C169.91,55.03 169.20,56.03 168.88,56.47C168.66,55.42 167.88,55.03 167.21,55.03C166.49,55.03 166.10,55.50 165.77,56.09C165.40,56.89 165.13,58.08 165.13,58.11ZM173.03,61C173.03,62.69 173.96,64.09 175.46,64.09C176.17,64.09 177.06,63.67 177.86,62.69C178.08,63.67 178.81,64.09 179.52,64.09C180.25,64.09 180.67,63.59 180.97,62.97C181.33,62.22 181.58,61.06 181.58,61.02C181.58,60.81 181.42,60.81 181.28,60.81C181.03,60.81 181.02,60.83 180.89,61.28C180.61,62.39 180.24,63.66 179.56,63.66C179.03,63.66 179.03,63.11 179.03,62.83C179.03,62.69 179.03,62.38 179.17,61.81L180.53,56.38C180.61,56.09 180.61,56.06 180.61,55.95C180.61,55.53 180.28,55.44 180.08,55.44C179.44,55.44 179.30,56.11 179.28,56.22C178.89,55.36 178.25,55.03 177.61,55.03C175.39,55.03 173.03,58.08 173.03,61ZM174.39,61.88C174.39,60.88 175.02,58.53 175.38,57.69C175.88,56.47 176.80,55.47 177.61,55.47C178.50,55.47 179.00,56.52 179.00,57.36C179.00,57.39 178.97,57.50 178.94,57.61L178.00,61.39C177.83,62.03 176.60,63.66 175.50,63.66C174.56,63.66 174.39,62.47 174.39,61.88ZM182.91,55.64C182.91,55.88 183.10,55.88 183.41,55.88L185.02,55.88L183.58,61.61C183.55,61.69 183.47,62.02 183.47,62.30C183.47,63.30 184.14,64.09 185.18,64.09C187.19,64.09 188.22,61.11 188.22,61.02C188.22,60.81 188.05,60.81 187.91,60.81C187.68,60.81 187.68,60.83 187.52,61.19C187.16,62.16 186.36,63.66 185.22,63.66C184.68,63.66 184.68,63.16 184.68,62.83C184.68,62.69 184.68,62.38 184.82,61.81L186.30,55.88L188.00,55.88C188.33,55.88 188.55,55.88 188.55,55.50C188.55,55.25 188.38,55.25 188.05,55.25L186.46,55.25L187.19,52.30C187.28,52.02 187.28,51.97 187.28,51.88C187.28,51.45 186.94,51.36 186.74,51.36C186.24,51.36 186.03,51.78 185.96,52.08L185.18,55.25L183.47,55.25C183.14,55.25 182.91,55.25 182.91,55.64ZM192.61,51.72C192.61,52.22 193.02,52.38 193.30,52.38C193.69,52.38 194.25,52 194.25,51.42C194.25,50.92 193.86,50.75 193.58,50.75C193.16,50.75 192.61,51.16 192.61,51.72ZM189.39,58.11C189.39,58.31 189.60,58.31 189.69,58.31C189.96,58.31 189.97,58.28 190.05,58C190.24,57.33 190.75,55.47 191.92,55.47C192.14,55.47 192.36,55.58 192.36,56.03C192.36,56.52 192.14,57.09 192.00,57.47L191.39,59.14C191.14,59.80 190.89,60.45 190.66,61.11C190.38,61.88 190.30,62.09 190.30,62.50C190.30,63.28 190.78,64.09 191.82,64.09C193.69,64.09 194.36,61.09 194.36,61.02C194.36,60.81 194.19,60.81 194.05,60.81C193.80,60.81 193.80,60.86 193.72,61.16C193.55,61.73 193.02,63.66 191.86,63.66C191.69,63.66 191.42,63.64 191.42,63.09C191.42,62.58 191.67,61.92 191.94,61.17L193.22,57.75C193.42,57.17 193.46,57.02 193.46,56.64C193.46,55.53 192.69,55.03 191.96,55.03C190.08,55.03 189.39,58.02 189.39,58.11ZM196.06,60.80C196.06,62.86 197.31,64.09 198.98,64.09C201.45,64.09 204.04,61.25 204.04,58.31C204.04,56.42 202.86,55.03 201.12,55.03C198.64,55.03 196.06,57.88 196.06,60.80ZM197.45,61.59C197.45,60.59 197.98,58.38 198.62,57.30C199.36,56.08 200.31,55.47 201.09,55.47C202.08,55.47 202.64,56.36 202.64,57.53C202.64,58.39 202.20,60.45 201.56,61.66C200.98,62.75 199.95,63.66 198.98,63.66C198.20,63.66 197.45,63.03 197.45,61.59ZM205.73,58.11C205.73,58.31 205.94,58.31 206.03,58.31C206.30,58.31 206.31,58.30 206.42,57.86C206.78,56.45 207.16,55.47 207.78,55.47C208.30,55.47 208.30,56.06 208.30,56.28C208.30,56.59 208.23,56.97 208.16,57.30L206.66,63.30C206.62,63.42 206.59,63.52 206.59,63.58C206.59,63.80 206.76,64.09 207.16,64.09C207.39,64.09 207.73,63.95 207.87,63.58L208.67,60.38C208.78,59.94 208.89,59.52 209.00,59.08C209.26,58.06 209.26,58.03 209.59,57.45C209.87,56.97 210.78,55.47 212.30,55.47C213.17,55.47 213.22,56.38 213.22,56.80C213.22,58.03 212.34,60.42 212.06,61.22C211.80,61.89 211.73,62.08 211.73,62.50C211.73,63.38 212.30,64.09 213.26,64.09C215.12,64.09 215.80,61.11 215.80,61.02C215.80,60.81 215.64,60.81 215.50,60.81C215.23,60.81 215.23,60.86 215.16,61.16C215.00,61.69 214.45,63.66 213.30,63.66C212.87,63.66 212.86,63.36 212.86,63.08C212.86,62.58 213.06,62.06 213.22,61.58C213.62,60.52 214.44,58.28 214.44,57.11C214.44,55.47 213.34,55.03 212.36,55.03C210.72,55.03 209.76,56.23 209.50,56.61C209.36,55.64 208.67,55.03 207.81,55.03C207.09,55.03 206.70,55.50 206.37,56.09C206.00,56.89 205.73,58.08 205.73,58.11ZM217.58,63.02C217.58,63.53 217.94,63.88 218.46,63.88C219.13,63.88 219.75,63.22 219.75,62.61C219.75,62.17 219.44,61.75 218.88,61.75C218.24,61.75 217.58,62.36 217.58,63.02ZM219.19,56.52C219.19,56.97 219.52,57.38 220.08,57.38C220.75,57.38 221.38,56.73 221.38,56.11C221.38,55.66 221.05,55.25 220.50,55.25C219.82,55.25 219.19,55.89 219.19,56.52ZM230.28,64.11C230.28,64.31 230.47,64.31 230.58,64.31C230.82,64.31 230.86,64.28 230.91,64.06C231.08,63.50 231.44,62.78 232.03,62.78C232.68,62.78 233.24,63.17 233.74,63.52C234.25,63.88 234.88,64.31 235.68,64.31C237.97,64.31 238.89,60.83 238.89,60.61C238.89,60.42 238.74,60.42 238.60,60.42C238.36,60.42 238.33,60.44 238.25,60.75C237.97,61.58 237.19,62.92 235.86,62.92C235.30,62.92 234.52,62.75 234.19,62.67C233.47,62.52 232.69,62.33 232.08,62.33C231.86,62.33 231.68,62.38 231.64,62.39C232.64,60.67 234.10,59.86 234.72,59.50C237.80,57.75 239.61,56.52 239.61,53.94C239.61,51.64 238.05,50.56 236.50,50.56C233.53,50.56 231.89,54.59 231.89,55.89C231.89,56.30 232.02,57.16 232.91,57.16C234.50,57.16 235.33,54.75 235.33,54C235.33,53.64 235.16,52.94 234.89,52.94C234.78,52.94 234.68,53.03 234.68,53.16C234.68,53.19 234.68,53.23 234.69,53.28C234.82,53.52 234.89,53.78 234.89,54.02C234.89,54.59 234.16,56.72 232.94,56.72C232.69,56.72 232.50,56.61 232.50,56.06C232.50,54.75 234.00,51 236.44,51C237.25,51 238.19,51.53 238.19,53.19C238.19,56.09 236.46,57.78 234.47,58.95C233.58,59.50 232.74,59.97 231.89,61.02C230.50,62.69 230.28,64.09 230.28,64.11ZM241.16,60.92C241.16,61.53 241.16,64.31 243.83,64.31C245.16,64.31 247.04,63.50 248.33,60.59C249.16,58.73 249.91,55.58 249.91,53.95C249.91,53.16 249.82,50.56 247.24,50.56C245.80,50.56 244.19,51.50 243.00,53.78C242.02,55.64 241.16,59.14 241.16,60.92ZM242.44,61.92C242.44,60.28 243.94,54.38 244.63,52.94C245.38,51.44 246.46,51 247.13,51C247.96,51 248.68,51.59 248.68,52.88C248.68,54.36 247.27,60.02 246.41,61.92C245.97,62.86 244.97,63.88 243.94,63.88C243.30,63.88 242.44,63.47 242.44,61.92ZM251.38,60.92C251.38,61.53 251.38,64.31 254.05,64.31C255.38,64.31 257.26,63.50 258.55,60.59C259.38,58.73 260.13,55.58 260.13,53.95C260.13,53.16 260.04,50.56 257.46,50.56C256.02,50.56 254.41,51.50 253.22,53.78C252.24,55.64 251.38,59.14 251.38,60.92ZM252.66,61.92C252.66,60.28 254.16,54.38 254.85,52.94C255.60,51.44 256.68,51 257.35,51C258.18,51 258.90,51.59 258.90,52.88C258.90,54.36 257.49,60.02 256.63,61.92C256.19,62.86 255.19,63.88 254.16,63.88C253.52,63.88 252.66,63.47 252.66,61.92ZM260.71,67.53C260.71,67.59 260.77,67.73 260.91,67.73C261.27,67.73 263.74,65.31 263.74,62.94C263.74,62.28 263.46,61.75 262.82,61.75C262.02,61.75 261.52,62.45 261.52,63.03C261.52,63.67 261.98,63.88 262.40,63.88C262.80,63.88 263.12,63.66 263.21,63.58C262.91,65.11 261.91,66.39 260.98,67.19C260.74,67.44 260.71,67.45 260.71,67.53ZM274.83,61.06C274.83,62.73 275.68,64.09 277.13,64.09C279.38,64.09 281.72,61.09 281.72,58.16C281.72,56.02 280.52,55.03 279.32,55.03C278.55,55.03 277.88,55.45 277.19,56.09L278.60,50.50C278.62,50.44 278.66,50.28 278.66,50.23C278.66,50.06 278.54,50 278.38,50C278.32,50 278.12,50.02 278.05,50.03L276.08,50.19C275.83,50.22 275.62,50.23 275.62,50.61C275.62,50.83 275.82,50.83 276.10,50.83C277.05,50.83 277.10,50.97 277.10,51.17C277.10,51.23 277.04,51.50 277.04,51.52L275.05,59.42C275.04,59.47 274.83,60.30 274.83,61.06ZM275.97,61.73C275.97,60.86 276.16,60.16 276.74,57.88C276.88,57.39 276.88,57.36 277.18,56.95C277.76,56.16 278.52,55.47 279.27,55.47C280.18,55.47 280.38,56.61 280.38,57.25C280.38,58.09 279.83,60.47 279.26,61.75C279.02,62.25 278.16,63.66 277.13,63.66C276.63,63.66 275.97,63.23 275.97,61.73ZM283.39,58.11C283.39,58.31 283.60,58.31 283.69,58.31C283.96,58.31 283.97,58.30 284.08,57.86C284.44,56.45 284.82,55.47 285.44,55.47C285.96,55.47 285.96,56.06 285.96,56.28C285.96,56.59 285.89,56.97 285.82,57.30L284.32,63.30C284.28,63.42 284.25,63.52 284.25,63.58C284.25,63.80 284.42,64.09 284.82,64.09C285.42,64.09 285.55,63.52 285.60,63.36L286.89,58.11C286.92,58.06 287.82,55.47 289.53,55.47C289.64,55.47 290.19,55.47 290.60,55.75C289.89,55.97 289.83,56.61 289.83,56.72C289.83,56.97 290.02,57.36 290.53,57.36C290.89,57.36 291.52,57.08 291.52,56.30C291.52,55.25 290.22,55.03 289.55,55.03C288.17,55.03 287.46,56.03 287.14,56.47C286.92,55.42 286.14,55.03 285.47,55.03C284.75,55.03 284.36,55.50 284.03,56.09C283.66,56.89 283.39,58.08 283.39,58.11ZM295.03,51.72C295.03,52.22 295.44,52.38 295.72,52.38C296.11,52.38 296.67,52 296.67,51.42C296.67,50.92 296.28,50.75 296.00,50.75C295.58,50.75 295.03,51.16 295.03,51.72ZM291.81,58.11C291.81,58.31 292.02,58.31 292.11,58.31C292.38,58.31 292.39,58.28 292.47,58C292.66,57.33 293.17,55.47 294.34,55.47C294.56,55.47 294.78,55.58 294.78,56.03C294.78,56.52 294.56,57.09 294.42,57.47L293.81,59.14C293.56,59.80 293.31,60.45 293.08,61.11C292.80,61.88 292.72,62.09 292.72,62.50C292.72,63.28 293.20,64.09 294.24,64.09C296.11,64.09 296.78,61.09 296.78,61.02C296.78,60.81 296.61,60.81 296.47,60.81C296.22,60.81 296.22,60.86 296.14,61.16C295.97,61.73 295.44,63.66 294.28,63.66C294.11,63.66 293.84,63.64 293.84,63.09C293.84,62.58 294.09,61.92 294.36,61.17L295.64,57.75C295.84,57.17 295.88,57.02 295.88,56.64C295.88,55.53 295.11,55.03 294.38,55.03C292.50,55.03 291.81,58.02 291.81,58.11ZM297.34,66.81C297.34,67.61 298.07,67.97 299.76,67.97C301.86,67.97 303.37,66.66 303.76,65.14L305.93,56.38C306.01,56.08 306.01,56.03 306.01,55.95C306.01,55.53 305.68,55.44 305.48,55.44C305.23,55.44 304.78,55.59 304.70,56.17C304.42,55.59 303.87,55.03 303.01,55.03C300.78,55.03 298.48,58 298.48,60.81C298.48,62.52 299.42,63.88 300.92,63.88C301.93,63.88 302.79,63.06 303.04,62.81L302.62,64.50C302.37,65.50 302.26,65.92 301.70,66.59C300.90,67.53 300.09,67.53 299.79,67.53C299.54,67.53 298.92,67.53 298.37,67.31C298.78,67.16 299.01,66.73 299.01,66.39C299.01,66.14 298.84,65.75 298.32,65.75C297.96,65.75 297.34,66.03 297.34,66.81ZM299.84,61.69C299.84,60.73 300.43,58.39 300.86,57.45C301.36,56.38 302.23,55.47 303.01,55.47C304.21,55.47 304.40,57.16 304.40,57.31L304.34,57.59L303.43,61.23C303.28,61.88 302.06,63.44 300.96,63.44C299.87,63.44 299.84,61.92 299.84,61.69ZM306.98,63.58C306.98,63.80 307.16,64.09 307.54,64.09C307.96,64.09 308.21,63.75 308.27,63.53C308.35,63.23 308.99,60.64 309.13,60.08C309.24,59.64 309.35,59.22 309.46,58.78C309.63,58.06 309.66,58.02 310.02,57.38C310.41,56.73 311.27,55.47 312.68,55.47C313.56,55.47 313.60,56.38 313.60,56.80C313.60,58.03 312.71,60.42 312.43,61.22C312.18,61.89 312.12,62.08 312.12,62.50C312.12,63.38 312.68,64.09 313.63,64.09C315.49,64.09 316.18,61.11 316.18,61.02C316.18,60.81 316.02,60.81 315.88,60.81C315.62,60.81 315.62,60.86 315.54,61.16C315.38,61.69 314.84,63.66 313.68,63.66C313.26,63.66 313.24,63.36 313.24,63.08C313.24,62.58 313.43,62.06 313.60,61.58C313.99,60.52 314.82,58.28 314.82,57.11C314.82,55.47 313.71,55.03 312.74,55.03C311.40,55.03 310.70,55.73 310.07,56.33L311.54,50.50C311.56,50.44 311.60,50.28 311.60,50.23C311.60,50.06 311.48,50 311.32,50C311.26,50 311.06,50.02 310.99,50.03L309.02,50.19C308.77,50.22 308.56,50.23 308.56,50.61C308.56,50.83 308.76,50.83 309.04,50.83C309.99,50.83 310.04,50.97 310.04,51.17C310.04,51.23 309.98,51.50 309.98,51.52L307.02,63.31C306.99,63.36 306.98,63.53 306.98,63.58ZM317.51,55.64C317.51,55.88 317.70,55.88 318.01,55.88L319.62,55.88L318.18,61.61C318.15,61.69 318.07,62.02 318.07,62.30C318.07,63.30 318.74,64.09 319.78,64.09C321.79,64.09 322.82,61.11 322.82,61.02C322.82,60.81 322.65,60.81 322.51,60.81C322.28,60.81 322.28,60.83 322.12,61.19C321.76,62.16 320.96,63.66 319.82,63.66C319.28,63.66 319.28,63.16 319.28,62.83C319.28,62.69 319.28,62.38 319.42,61.81L320.90,55.88L322.60,55.88C322.93,55.88 323.15,55.88 323.15,55.50C323.15,55.25 322.98,55.25 322.65,55.25L321.06,55.25L321.79,52.30C321.88,52.02 321.88,51.97 321.88,51.88C321.88,51.45 321.54,51.36 321.34,51.36C320.84,51.36 320.63,51.78 320.56,52.08L319.78,55.25L318.07,55.25C317.74,55.25 317.51,55.25 317.51,55.64ZM323.99,58.11C323.99,58.31 324.20,58.31 324.29,58.31C324.56,58.31 324.57,58.30 324.68,57.86C325.04,56.45 325.42,55.47 326.04,55.47C326.56,55.47 326.56,56.06 326.56,56.28C326.56,56.59 326.49,56.97 326.42,57.30L324.92,63.30C324.88,63.42 324.85,63.52 324.85,63.58C324.85,63.80 325.02,64.09 325.42,64.09C325.65,64.09 325.99,63.95 326.13,63.58L326.93,60.38C327.04,59.94 327.15,59.52 327.26,59.08C327.52,58.06 327.52,58.03 327.85,57.45C328.13,56.97 329.04,55.47 330.56,55.47C331.43,55.47 331.48,56.38 331.48,56.80C331.48,58.03 330.60,60.42 330.32,61.22C330.06,61.89 329.99,62.08 329.99,62.50C329.99,63.38 330.56,64.09 331.52,64.09C333.38,64.09 334.06,61.11 334.06,61.02C334.06,60.81 333.90,60.81 333.76,60.81C333.49,60.81 333.49,60.86 333.42,61.16C333.26,61.69 332.71,63.66 331.56,63.66C331.13,63.66 331.12,63.36 331.12,63.08C331.12,62.58 331.32,62.06 331.48,61.58C331.88,60.52 332.70,58.28 332.70,57.11C332.70,55.47 331.60,55.03 330.62,55.03C328.98,55.03 328.02,56.23 327.76,56.61C327.62,55.64 326.93,55.03 326.07,55.03C325.35,55.03 324.96,55.50 324.63,56.09C324.26,56.89 323.99,58.08 323.99,58.11ZM335.86,60.59C335.86,62.39 336.81,64.09 338.72,64.09C341.28,64.09 342.94,62.09 342.94,61.80C342.94,61.69 342.78,61.47 342.62,61.47C342.53,61.47 342.51,61.50 342.36,61.69C340.87,63.58 339.09,63.66 338.76,63.66C337.45,63.66 337.23,62.23 337.23,61.45C337.23,60.69 337.44,59.80 337.58,59.25L338.36,59.25C338.95,59.25 340.30,59.19 341.26,58.81C342.84,58.17 342.84,56.88 342.84,56.73C342.84,55.81 342.09,55.03 340.81,55.03C338.72,55.03 335.86,57.06 335.86,60.59ZM337.70,58.81C338.56,55.53 340.62,55.47 340.81,55.47C341.62,55.47 342.08,56.02 342.08,56.69C342.08,58.81 338.78,58.81 338.12,58.81L337.70,58.81ZM344.29,62.16C344.29,63.38 345.46,64.09 346.87,64.09C349.87,64.09 350.64,61.66 350.64,60.73C350.64,59 349.07,58.64 348.26,58.45C347.70,58.33 346.98,58.17 346.98,57.31C346.98,56.83 347.40,55.47 349.00,55.47C349.54,55.47 350.28,55.67 350.50,56.45C349.85,56.53 349.70,57.08 349.70,57.28C349.70,57.50 349.82,57.83 350.29,57.83C350.64,57.83 351.15,57.59 351.15,56.73C351.15,55.81 350.34,55.03 349.01,55.03C346.68,55.03 345.85,56.95 345.85,58C345.85,59.53 347.15,59.81 347.71,59.94C348.59,60.14 349.50,60.33 349.50,61.42C349.50,62.06 348.96,63.66 346.90,63.66C346.46,63.66 345.29,63.56 344.98,62.53C346.00,62.44 346.00,61.59 346.00,61.56C346.00,61.17 345.73,60.92 345.32,60.92C344.85,60.92 344.29,61.25 344.29,62.16ZM352.45,62.16C352.45,63.38 353.62,64.09 355.03,64.09C358.03,64.09 358.80,61.66 358.80,60.73C358.80,59 357.23,58.64 356.42,58.45C355.86,58.33 355.14,58.17 355.14,57.31C355.14,56.83 355.56,55.47 357.16,55.47C357.70,55.47 358.44,55.67 358.66,56.45C358.01,56.53 357.86,57.08 357.86,57.28C357.86,57.50 357.98,57.83 358.45,57.83C358.80,57.83 359.31,57.59 359.31,56.73C359.31,55.81 358.50,55.03 357.17,55.03C354.84,55.03 354.01,56.95 354.01,58C354.01,59.53 355.31,59.81 355.87,59.94C356.75,60.14 357.66,60.33 357.66,61.42C357.66,62.06 357.12,63.66 355.06,63.66C354.62,63.66 353.45,63.56 353.14,62.53C354.16,62.44 354.16,61.59 354.16,61.56C354.16,61.17 353.89,60.92 353.48,60.92C353.01,60.92 352.45,61.25 352.45,62.16ZM361.36,63.02C361.36,63.53 361.72,63.88 362.24,63.88C362.91,63.88 363.53,63.22 363.53,62.61C363.53,62.17 363.22,61.75 362.66,61.75C362.02,61.75 361.36,62.36 361.36,63.02ZM362.97,56.52C362.97,56.97 363.30,57.38 363.86,57.38C364.53,57.38 365.16,56.73 365.16,56.11C365.16,55.66 364.83,55.25 364.28,55.25C363.60,55.25 362.97,55.89 362.97,56.52ZM374.06,64.11C374.06,64.31 374.25,64.31 374.36,64.31C374.60,64.31 374.64,64.28 374.69,64.06C374.86,63.50 375.22,62.78 375.81,62.78C376.45,62.78 377.02,63.17 377.52,63.52C378.03,63.88 378.66,64.31 379.45,64.31C381.75,64.31 382.67,60.83 382.67,60.61C382.67,60.42 382.52,60.42 382.38,60.42C382.14,60.42 382.11,60.44 382.03,60.75C381.75,61.58 380.97,62.92 379.64,62.92C379.08,62.92 378.30,62.75 377.97,62.67C377.25,62.52 376.47,62.33 375.86,62.33C375.64,62.33 375.45,62.38 375.42,62.39C376.42,60.67 377.88,59.86 378.50,59.50C381.58,57.75 383.39,56.52 383.39,53.94C383.39,51.64 381.83,50.56 380.28,50.56C377.31,50.56 375.67,54.59 375.67,55.89C375.67,56.30 375.80,57.16 376.69,57.16C378.28,57.16 379.11,54.75 379.11,54C379.11,53.64 378.94,52.94 378.67,52.94C378.56,52.94 378.45,53.03 378.45,53.16C378.45,53.19 378.45,53.23 378.47,53.28C378.60,53.52 378.67,53.78 378.67,54.02C378.67,54.59 377.94,56.72 376.72,56.72C376.47,56.72 376.28,56.61 376.28,56.06C376.28,54.75 377.78,51 380.22,51C381.03,51 381.97,51.53 381.97,53.19C381.97,56.09 380.24,57.78 378.25,58.95C377.36,59.50 376.52,59.97 375.67,61.02C374.28,62.69 374.06,64.09 374.06,64.11ZM384.94,60.92C384.94,61.53 384.94,64.31 387.61,64.31C388.94,64.31 390.82,63.50 392.11,60.59C392.94,58.73 393.69,55.58 393.69,53.95C393.69,53.16 393.60,50.56 391.02,50.56C389.58,50.56 387.97,51.50 386.78,53.78C385.80,55.64 384.94,59.14 384.94,60.92ZM386.22,61.92C386.22,60.28 387.72,54.38 388.41,52.94C389.16,51.44 390.24,51 390.91,51C391.74,51 392.46,51.59 392.46,52.88C392.46,54.36 391.05,60.02 390.19,61.92C389.75,62.86 388.75,63.88 387.72,63.88C387.08,63.88 386.22,63.47 386.22,61.92ZM395.16,60.92C395.16,61.53 395.16,64.31 397.83,64.31C399.16,64.31 401.04,63.50 402.33,60.59C403.16,58.73 403.91,55.58 403.91,53.95C403.91,53.16 403.82,50.56 401.24,50.56C399.80,50.56 398.19,51.50 397.00,53.78C396.02,55.64 395.16,59.14 395.16,60.92ZM396.44,61.92C396.44,60.28 397.94,54.38 398.63,52.94C399.38,51.44 400.46,51 401.13,51C401.96,51 402.68,51.59 402.68,52.88C402.68,54.36 401.27,60.02 400.41,61.92C399.97,62.86 398.97,63.88 397.94,63.88C397.30,63.88 396.44,63.47 396.44,61.92Z" fill="#575757"/>
    <path d="M9.64,25.22L9.63,43.91" fill="none" stroke="#000000"/>
    <g>
        <path d="M6.28,-5.27C6.28,-5.06 6.38,-4.44 7.28,-4.44L11.98,-4.44C12.91,-4.44 12.98,-5.06 12.98,-5.27C12.98,-5.47 12.92,-6.09 11.98,-6.09L7.31,-6.09C6.38,-6.09 6.28,-5.50 6.28,-5.27Z"/>
        <path d="M16.28,-5.27C16.28,-5.06 16.38,-4.44 17.28,-4.44L21.98,-4.44C22.91,-4.44 22.98,-5.06 22.98,-5.27C22.98,-5.47 22.92,-6.09 21.98,-6.09L17.31,-6.09C16.38,-6.09 16.28,-5.50 16.28,-5.27Z"/>
        <path d="M26.28,-5.27C26.28,-5.06 26.38,-4.44 27.28,-4.44L31.98,-4.44C32.91,-4.44 32.98,-5.06 32.98,-5.27C32.98,-5.47 32.92,-6.09 31.98,-6.09L27.31,-6.09C26.38,-6.09 26.28,-5.50 26.28,-5.27Z"/>
        <path d="M2.50,21.56L6.13,21.56L6.13,21.02L4.11,21.02L4.11,-1.89L6.13,-1.89L6.13,-2.44L2.50,-2.44L2.50,21.56ZM7.47,15.25C7.47,15.66 7.47,15.83 7.73,15.83C7.84,15.83 7.88,15.80 8.33,15.34C8.38,15.30 8.38,15.25 8.81,14.80C9.86,15.80 10.94,15.83 11.45,15.83C14.20,15.83 15.31,14.22 15.31,12.48C15.31,11.22 14.59,10.50 14.30,10.20C13.52,9.44 12.58,9.25 11.56,9.06C10.22,8.80 8.61,8.48 8.61,7.09C8.61,6.25 9.23,5.27 11.30,5.27C13.94,5.27 14.06,7.42 14.11,8.17C14.14,8.39 14.36,8.39 14.41,8.39C14.72,8.39 14.72,8.27 14.72,7.81L14.72,5.39C14.72,4.98 14.72,4.81 14.45,4.81C14.33,4.81 14.28,4.81 13.97,5.09C13.89,5.19 13.66,5.41 13.56,5.48C12.64,4.81 11.66,4.81 11.30,4.81C8.38,4.81 7.47,6.42 7.47,7.77C7.47,8.61 7.84,9.28 8.50,9.80C9.27,10.42 9.94,10.58 11.66,10.91C12.19,11 14.16,11.39 14.16,13.11C14.16,14.34 13.31,15.30 11.45,15.30C9.44,15.30 8.56,13.94 8.11,11.89C8.05,11.58 8.02,11.48 7.78,11.48C7.47,11.48 7.47,11.66 7.47,12.08L7.47,15.25ZM17.14,13.28C17.14,15.22 19.47,15.83 20.97,15.83C22.57,15.83 23.66,14.86 24.11,13.73C24.22,14.70 24.86,15.70 25.99,15.70C26.50,15.70 27.96,15.38 27.96,13.42L27.96,12.08L27.36,12.08L27.36,13.42C27.36,14.81 26.75,14.97 26.50,14.97C25.71,14.97 25.61,13.88 25.61,13.77L25.61,8.97C25.61,7.95 25.61,7.02 24.74,6.13C23.82,5.19 22.61,4.81 21.46,4.81C19.49,4.81 17.83,5.94 17.83,7.52C17.83,8.25 18.32,8.66 18.94,8.66C19.61,8.66 20.03,8.17 20.03,7.55C20.03,7.27 19.92,6.47 18.82,6.44C19.47,5.61 20.64,5.34 21.41,5.34C22.58,5.34 23.96,6.28 23.96,8.41L23.96,9.30C22.72,9.38 21.05,9.44 19.53,10.16C17.74,10.98 17.14,12.22 17.14,13.28ZM18.99,13.27C18.99,11.94 19.99,9.95 23.96,9.80L23.96,12.20C23.96,14.48 22.22,15.30 21.14,15.30C19.97,15.30 18.99,14.45 18.99,13.27ZM28.89,15.56C29.74,15.53 30.96,15.48 31.61,15.48C32.24,15.48 33.49,15.53 34.30,15.56L34.30,14.81C32.69,14.81 32.42,14.81 32.42,13.73L32.42,9.33C32.42,6.83 34.13,5.48 35.66,5.48C37.17,5.48 37.44,6.78 37.44,8.14L37.44,13.73C37.44,14.81 37.17,14.81 35.57,14.81L35.57,15.56C36.41,15.53 37.63,15.48 38.28,15.48C38.91,15.48 40.16,15.53 40.97,15.56L40.97,14.81C39.36,14.81 39.10,14.81 39.10,13.73L39.10,9.33C39.10,6.83 40.80,5.48 42.33,5.48C43.85,5.48 44.11,6.78 44.11,8.14L44.11,13.73C44.11,14.81 43.85,14.81 42.24,14.81L42.24,15.56C43.08,15.53 44.30,15.48 44.96,15.48C45.58,15.48 46.83,15.53 47.64,15.56L47.64,14.81C46.39,14.81 45.78,14.81 45.77,14.09L45.77,9.52C45.77,7.45 45.77,6.70 45.02,5.84C44.69,5.44 43.89,4.95 42.50,4.95C40.49,4.95 39.42,6.39 39.02,7.31C38.69,5.22 36.91,4.95 35.83,4.95C34.08,4.95 32.96,5.98 32.28,7.47L32.28,4.95L28.89,5.22L28.89,5.97C30.58,5.97 30.77,6.13 30.77,7.31L30.77,13.73C30.77,14.81 30.50,14.81 28.89,14.81L28.89,15.56ZM48.79,19.47L48.79,20.22C49.60,20.19 50.85,20.14 51.48,20.14C52.14,20.14 53.35,20.19 54.20,20.22L54.20,19.47C52.59,19.47 52.32,19.47 52.32,18.39L52.32,14.36L52.32,14.14C52.43,14.53 53.45,15.83 55.28,15.83C58.14,15.83 60.62,13.47 60.62,10.38C60.62,7.33 58.29,4.95 55.60,4.95C53.73,4.95 52.73,6.02 52.24,6.53L52.24,4.95L48.79,5.22L48.79,5.97C50.49,5.97 50.67,6.11 50.67,7.16L50.67,18.39C50.67,19.47 50.40,19.47 48.79,19.47ZM52.32,12.83L52.32,7.47C53.01,6.25 54.20,5.55 55.42,5.55C57.17,5.55 58.64,7.67 58.64,10.38C58.64,13.28 56.95,15.30 55.18,15.30C54.21,15.30 53.31,14.81 52.65,13.83C52.32,13.33 52.32,13.31 52.32,12.83ZM62.24,15.56C63.02,15.53 64.30,15.48 64.89,15.48C65.50,15.48 66.67,15.53 67.56,15.56L67.56,14.81C65.96,14.81 65.69,14.81 65.69,13.73L65.69,-1.09L62.24,-0.83L62.24,-0.08C63.91,-0.08 64.10,0.08 64.10,1.27L64.10,13.73C64.10,14.81 63.85,14.81 62.24,14.81L62.24,15.56ZM68.76,10.28C68.76,13.50 71.28,15.83 74.04,15.83C76.96,15.83 78.04,13.16 78.04,12.70C78.04,12.47 77.85,12.42 77.73,12.42C77.53,12.42 77.48,12.56 77.43,12.75C76.59,15.22 74.43,15.22 74.18,15.22C72.98,15.22 72.03,14.50 71.48,13.63C70.74,12.47 70.74,10.88 70.74,10.02L77.45,10.02C77.98,10.02 78.04,10.02 78.04,9.52C78.04,7.14 76.74,4.81 73.74,4.81C70.96,4.81 68.76,7.28 68.76,10.28ZM70.78,9.52C70.92,5.94 72.93,5.34 73.74,5.34C76.23,5.34 76.46,8.58 76.46,9.52L70.78,9.52ZM79.24,21.02L79.24,21.56L82.87,21.56L82.87,-2.44L79.24,-2.44L79.24,-1.89L81.26,-1.89L81.26,21.02L79.24,21.02Z"/>
        <path d="M6.28,24.39C6.28,24.59 6.38,25.22 7.28,25.22L11.98,25.22C12.91,25.22 12.98,24.59 12.98,24.39C12.98,24.19 12.92,23.56 11.98,23.56L7.31,23.56C6.38,23.56 6.28,24.16 6.28,24.39Z"/>
    </g>
    <path d="M95.87,12.16C95.87,13.38 97.04,14.09 98.45,14.09C101.45,14.09 102.21,11.66 102.21,10.73C102.21,9 100.65,8.64 99.84,8.45C99.28,8.33 98.56,8.17 98.56,7.31C98.56,6.83 98.98,5.47 100.57,5.47C101.12,5.47 101.85,5.67 102.07,6.45C101.43,6.53 101.28,7.08 101.28,7.28C101.28,7.50 101.40,7.83 101.87,7.83C102.21,7.83 102.73,7.59 102.73,6.73C102.73,5.81 101.92,5.03 100.59,5.03C98.26,5.03 97.43,6.95 97.43,8C97.43,9.53 98.73,9.81 99.29,9.94C100.17,10.14 101.07,10.33 101.07,11.42C101.07,12.06 100.54,13.66 98.48,13.66C98.04,13.66 96.87,13.56 96.56,12.53C97.57,12.44 97.57,11.59 97.57,11.56C97.57,11.17 97.31,10.92 96.90,10.92C96.43,10.92 95.87,11.25 95.87,12.16ZM104.33,5.64C104.33,5.88 104.51,5.88 104.83,5.88L106.44,5.88L105.00,11.61C104.97,11.69 104.89,12.02 104.89,12.30C104.89,13.30 105.56,14.09 106.59,14.09C108.61,14.09 109.64,11.11 109.64,11.02C109.64,10.81 109.47,10.81 109.33,10.81C109.09,10.81 109.09,10.83 108.94,11.19C108.58,12.16 107.78,13.66 106.64,13.66C106.09,13.66 106.09,13.16 106.09,12.83C106.09,12.69 106.09,12.38 106.23,11.81L107.72,5.88L109.42,5.88C109.75,5.88 109.97,5.88 109.97,5.50C109.97,5.25 109.79,5.25 109.47,5.25L107.87,5.25L108.61,2.30C108.70,2.02 108.70,1.97 108.70,1.88C108.70,1.45 108.36,1.36 108.15,1.36C107.65,1.36 107.45,1.78 107.37,2.08L106.59,5.25L104.89,5.25C104.56,5.25 104.33,5.25 104.33,5.64ZM111.31,11C111.31,12.69 112.23,14.09 113.73,14.09C114.45,14.09 115.34,13.67 116.14,12.69C116.36,13.67 117.09,14.09 117.79,14.09C118.53,14.09 118.95,13.59 119.25,12.97C119.61,12.22 119.86,11.06 119.86,11.02C119.86,10.81 119.70,10.81 119.56,10.81C119.31,10.81 119.29,10.83 119.17,11.28C118.89,12.39 118.51,13.66 117.84,13.66C117.31,13.66 117.31,13.11 117.31,12.83C117.31,12.69 117.31,12.38 117.45,11.81L118.81,6.38C118.89,6.09 118.89,6.06 118.89,5.95C118.89,5.53 118.56,5.44 118.36,5.44C117.72,5.44 117.58,6.11 117.56,6.22C117.17,5.36 116.53,5.03 115.89,5.03C113.67,5.03 111.31,8.08 111.31,11ZM112.67,11.88C112.67,10.88 113.29,8.53 113.65,7.69C114.15,6.47 115.08,5.47 115.89,5.47C116.78,5.47 117.28,6.52 117.28,7.36C117.28,7.39 117.25,7.50 117.22,7.61L116.28,11.39C116.11,12.03 114.87,13.66 113.78,13.66C112.84,13.66 112.67,12.47 112.67,11.88ZM121.03,8.11C121.03,8.31 121.23,8.31 121.33,8.31C121.59,8.31 121.61,8.30 121.72,7.86C122.08,6.45 122.45,5.47 123.08,5.47C123.59,5.47 123.59,6.06 123.59,6.28C123.59,6.59 123.53,6.97 123.45,7.30L121.95,13.30C121.92,13.42 121.89,13.52 121.89,13.58C121.89,13.80 122.06,14.09 122.45,14.09C123.06,14.09 123.19,13.52 123.23,13.36L124.53,8.11C124.56,8.06 125.45,5.47 127.17,5.47C127.28,5.47 127.83,5.47 128.23,5.75C127.53,5.97 127.47,6.61 127.47,6.72C127.47,6.97 127.65,7.36 128.17,7.36C128.53,7.36 129.15,7.08 129.15,6.30C129.15,5.25 127.86,5.03 127.19,5.03C125.81,5.03 125.09,6.03 124.78,6.47C124.56,5.42 123.78,5.03 123.11,5.03C122.39,5.03 122.00,5.50 121.67,6.09C121.30,6.89 121.03,8.08 121.03,8.11ZM129.61,5.64C129.61,5.88 129.79,5.88 130.11,5.88L131.72,5.88L130.28,11.61C130.25,11.69 130.17,12.02 130.17,12.30C130.17,13.30 130.84,14.09 131.87,14.09C133.89,14.09 134.92,11.11 134.92,11.02C134.92,10.81 134.75,10.81 134.61,10.81C134.37,10.81 134.37,10.83 134.22,11.19C133.86,12.16 133.06,13.66 131.92,13.66C131.37,13.66 131.37,13.16 131.37,12.83C131.37,12.69 131.37,12.38 131.51,11.81L133.00,5.88L134.70,5.88C135.03,5.88 135.25,5.88 135.25,5.50C135.25,5.25 135.07,5.25 134.75,5.25L133.15,5.25L133.89,2.30C133.98,2.02 133.98,1.97 133.98,1.88C133.98,1.45 133.64,1.36 133.43,1.36C132.93,1.36 132.73,1.78 132.65,2.08L131.87,5.25L130.17,5.25C129.84,5.25 129.61,5.25 129.61,5.64ZM136.70,13.02C136.70,13.53 137.06,13.88 137.57,13.88C138.25,13.88 138.87,13.22 138.87,12.61C138.87,12.17 138.56,11.75 138.00,11.75C137.36,11.75 136.70,12.36 136.70,13.02ZM138.31,6.52C138.31,6.97 138.64,7.38 139.20,7.38C139.87,7.38 140.50,6.73 140.50,6.11C140.50,5.66 140.17,5.25 139.62,5.25C138.93,5.25 138.31,5.89 138.31,6.52ZM149.85,11.53C149.85,13 150.71,14.31 152.43,14.31C154.99,14.31 157.67,11.61 157.67,8.58C157.67,7 156.79,5.47 155.06,5.47C154.13,5.47 153.31,5.81 152.57,6.39L153.49,2.72C153.56,2.50 153.57,2.47 153.59,2.47C153.62,2.47 153.65,2.47 153.85,2.53C154.23,2.67 154.70,2.72 155.09,2.72C157.29,2.72 159.06,1.06 159.06,0.75C159.06,0.61 158.93,0.58 158.87,0.58C158.81,0.58 158.73,0.59 158.63,0.64C157.73,1.03 156.84,1.19 156.06,1.19C155.17,1.19 154.40,1 153.81,0.67C153.70,0.61 153.62,0.58 153.53,0.58C153.40,0.58 153.35,0.69 153.29,0.92L151.78,7C151.76,7.06 151.73,7.22 151.73,7.25C151.73,7.45 151.87,7.50 151.99,7.50C152.13,7.50 152.17,7.44 152.31,7.30C153.34,6.09 154.43,5.92 155.01,5.92C155.84,5.92 156.23,6.61 156.23,7.69C156.23,8.80 155.65,10.89 155.23,11.69C154.35,13.31 153.17,13.75 152.43,13.75C151.71,13.75 150.49,13.36 150.48,11.42C150.53,11.44 150.57,11.44 150.67,11.44C151.35,11.44 151.73,10.86 151.73,10.39C151.73,10 151.48,9.72 151.01,9.72C149.98,9.72 149.85,10.89 149.85,11.53ZM160.28,10.92C160.28,11.53 160.28,14.31 162.95,14.31C164.28,14.31 166.15,13.50 167.45,10.59C168.28,8.73 169.03,5.58 169.03,3.95C169.03,3.16 168.93,0.56 166.35,0.56C164.92,0.56 163.31,1.50 162.12,3.78C161.14,5.64 160.28,9.14 160.28,10.92ZM161.56,11.92C161.56,10.28 163.06,4.38 163.75,2.94C164.50,1.44 165.57,1 166.25,1C167.07,1 167.79,1.59 167.79,2.88C167.79,4.36 166.39,10.02 165.53,11.92C165.09,12.86 164.09,13.88 163.06,13.88C162.42,13.88 161.56,13.47 161.56,11.92ZM169.61,17.53C169.61,17.59 169.67,17.73 169.81,17.73C170.17,17.73 172.64,15.31 172.64,12.94C172.64,12.28 172.36,11.75 171.72,11.75C170.92,11.75 170.42,12.45 170.42,13.03C170.42,13.67 170.87,13.88 171.29,13.88C171.70,13.88 172.01,13.66 172.11,13.58C171.81,15.11 170.81,16.39 169.87,17.19C169.64,17.44 169.61,17.45 169.61,17.53ZM183.71,10.59C183.71,12.39 184.67,14.09 186.57,14.09C189.14,14.09 190.79,12.09 190.79,11.80C190.79,11.69 190.64,11.47 190.48,11.47C190.39,11.47 190.37,11.50 190.21,11.69C188.73,13.58 186.95,13.66 186.62,13.66C185.31,13.66 185.09,12.23 185.09,11.45C185.09,10.69 185.29,9.80 185.43,9.25L186.21,9.25C186.81,9.25 188.15,9.19 189.12,8.81C190.70,8.17 190.70,6.88 190.70,6.73C190.70,5.81 189.95,5.03 188.67,5.03C186.57,5.03 183.71,7.06 183.71,10.59ZM185.56,8.81C186.42,5.53 188.48,5.47 188.67,5.47C189.48,5.47 189.93,6.02 189.93,6.69C189.93,8.81 186.64,8.81 185.98,8.81L185.56,8.81ZM192.29,8.11C192.29,8.31 192.49,8.31 192.59,8.31C192.85,8.31 192.87,8.30 192.98,7.86C193.34,6.45 193.71,5.47 194.34,5.47C194.85,5.47 194.85,6.06 194.85,6.28C194.85,6.59 194.79,6.97 194.71,7.30L193.21,13.30C193.18,13.42 193.15,13.52 193.15,13.58C193.15,13.80 193.32,14.09 193.71,14.09C193.95,14.09 194.29,13.95 194.43,13.58L195.23,10.38C195.34,9.94 195.45,9.52 195.55,9.08C195.82,8.06 195.82,8.03 196.15,7.45C196.43,6.97 197.34,5.47 198.85,5.47C199.73,5.47 199.77,6.38 199.77,6.80C199.77,8.03 198.90,10.42 198.62,11.22C198.35,11.89 198.29,12.08 198.29,12.50C198.29,13.38 198.85,14.09 199.82,14.09C201.68,14.09 202.35,11.11 202.35,11.02C202.35,10.81 202.20,10.81 202.05,10.81C201.79,10.81 201.79,10.86 201.71,11.16C201.55,11.69 201.01,13.66 199.85,13.66C199.43,13.66 199.41,13.36 199.41,13.08C199.41,12.58 199.62,12.06 199.77,11.58C200.18,10.52 200.99,8.28 200.99,7.11C200.99,5.47 199.90,5.03 198.91,5.03C197.27,5.03 196.32,6.23 196.05,6.61C195.91,5.64 195.23,5.03 194.37,5.03C193.65,5.03 193.26,5.50 192.93,6.09C192.55,6.89 192.29,8.08 192.29,8.11ZM204.03,11C204.03,12.69 204.95,14.09 206.45,14.09C207.17,14.09 208.06,13.67 208.86,12.69C209.08,13.67 209.81,14.09 210.51,14.09C211.25,14.09 211.67,13.59 211.97,12.97C212.33,12.22 212.58,11.06 212.58,11.02C212.58,10.81 212.42,10.81 212.28,10.81C212.03,10.81 212.01,10.83 211.89,11.28C211.61,12.39 211.23,13.66 210.56,13.66C210.03,13.66 210.03,13.11 210.03,12.83C210.03,12.69 210.03,12.39 210.15,11.92L213.01,0.50C213.03,0.44 213.08,0.28 213.08,0.23C213.08,0.06 212.95,0 212.79,0C212.73,0 212.53,0.02 212.47,0.03L210.50,0.19C210.25,0.22 210.03,0.23 210.03,0.61C210.03,0.83 210.23,0.83 210.51,0.83C211.47,0.83 211.51,0.97 211.51,1.17C211.51,1.23 211.45,1.50 211.45,1.52L210.29,6.19C210.00,5.58 209.45,5.03 208.61,5.03C206.39,5.03 204.03,8.08 204.03,11ZM205.39,11.88C205.39,10.88 206.01,8.53 206.37,7.69C206.87,6.47 207.79,5.47 208.61,5.47C208.78,5.47 209.23,5.50 209.59,6.06C209.79,6.38 210.00,6.95 210.00,7.33C210.00,7.39 209.97,7.47 209.94,7.59L208.97,11.44C208.81,12.06 207.59,13.66 206.50,13.66C205.56,13.66 205.39,12.47 205.39,11.88ZM214.36,13.02C214.36,13.53 214.72,13.88 215.23,13.88C215.91,13.88 216.53,13.22 216.53,12.61C216.53,12.17 216.22,11.75 215.66,11.75C215.01,11.75 214.36,12.36 214.36,13.02ZM215.97,6.52C215.97,6.97 216.30,7.38 216.86,7.38C217.53,7.38 218.16,6.73 218.16,6.11C218.16,5.66 217.83,5.25 217.28,5.25C216.59,5.25 215.97,5.89 215.97,6.52ZM227.72,13.64C227.72,13.88 227.94,13.88 228.01,13.88C228.87,13.88 229.78,13.81 230.64,13.81C231.51,13.81 232.44,13.88 233.31,13.88C233.45,13.88 233.72,13.88 233.72,13.50C233.72,13.25 233.51,13.25 233.19,13.25L233.03,13.25C232.78,13.25 232.44,13.23 232.17,13.22C231.73,13.16 231.61,13.14 231.61,12.86C231.61,12.73 231.65,12.56 231.67,12.47L234.53,1.06C234.56,1 234.59,0.83 234.59,0.80C234.59,0.64 234.47,0.56 234.36,0.56C234.23,0.56 234.22,0.58 233.97,0.88C232.44,2.94 231.03,3.08 230.45,3.14C230.36,3.16 230.14,3.17 230.14,3.52C230.14,3.75 230.37,3.75 230.45,3.75C230.75,3.75 231.73,3.64 232.67,2.94L230.31,12.42C230.15,13.06 230.00,13.25 228.44,13.25L228.28,13.25C227.94,13.25 227.72,13.25 227.72,13.64ZM237.73,11.53C237.73,13 238.59,14.31 240.31,14.31C242.87,14.31 245.55,11.61 245.55,8.58C245.55,7 244.67,5.47 242.94,5.47C242.01,5.47 241.19,5.81 240.45,6.39L241.37,2.72C241.44,2.50 241.45,2.47 241.47,2.47C241.50,2.47 241.53,2.47 241.73,2.53C242.11,2.67 242.58,2.72 242.97,2.72C245.17,2.72 246.94,1.06 246.94,0.75C246.94,0.61 246.81,0.58 246.75,0.58C246.69,0.58 246.61,0.59 246.51,0.64C245.61,1.03 244.72,1.19 243.94,1.19C243.05,1.19 242.28,1 241.69,0.67C241.58,0.61 241.50,0.58 241.41,0.58C241.28,0.58 241.23,0.69 241.17,0.92L239.66,7C239.64,7.06 239.61,7.22 239.61,7.25C239.61,7.45 239.75,7.50 239.87,7.50C240.01,7.50 240.05,7.44 240.19,7.30C241.22,6.09 242.31,5.92 242.89,5.92C243.72,5.92 244.11,6.61 244.11,7.69C244.11,8.80 243.53,10.89 243.11,11.69C242.23,13.31 241.05,13.75 240.31,13.75C239.59,13.75 238.37,13.36 238.36,11.42C238.41,11.44 238.45,11.44 238.55,11.44C239.23,11.44 239.61,10.86 239.61,10.39C239.61,10 239.36,9.72 238.89,9.72C237.86,9.72 237.73,10.89 237.73,11.53ZM248.16,10.92C248.16,11.53 248.16,14.31 250.83,14.31C252.16,14.31 254.03,13.50 255.33,10.59C256.16,8.73 256.91,5.58 256.91,3.95C256.91,3.16 256.81,0.56 254.23,0.56C252.80,0.56 251.19,1.50 250.00,3.78C249.02,5.64 248.16,9.14 248.16,10.92ZM249.44,11.92C249.44,10.28 250.94,4.38 251.63,2.94C252.38,1.44 253.45,1 254.13,1C254.95,1 255.67,1.59 255.67,2.88C255.67,4.36 254.27,10.02 253.41,11.92C252.97,12.86 251.97,13.88 250.94,13.88C250.30,13.88 249.44,13.47 249.44,11.92Z" fill="#575757"/>
</svg>